<?xml version="1.0" encoding="UTF-8" standalone="no"?><!DOCTYPE svg PUBLIC "-//W3C//DTD SVG 1.1//EN" "http://www.w3.org/Graphics/SVG/1.1/DTD/svg11.dtd"><svg width="100%" height="100%" viewBox="0 0 260 260" version="1.1" xmlns="http://www.w3.org/2000/svg" xmlns:xlink="http://www.w3.org/1999/xlink" xml:space="preserve" xmlns:serif="http://www.serif.com/" style="fill-rule:evenodd;clip-rule:evenodd;stroke-linejoin:round;stroke-miterlimit:2;"><g id="Color-Palette" serif:id="Color Palette"></g><g id="Concept-1" serif:id="Concept 1"><path d="M-186.53,-265.011l124.353,0l62.177,107.693l-62.177,107.693l-124.353,-0l-62.176,-107.693l62.176,-107.693Z" style="fill:#f6e8e0;"/><path d="M-186.959,-265.011l124.353,0l62.176,107.693l-62.176,107.693l-124.353,-0l-62.177,-107.693l62.177,-107.693Zm8.083,14c-0,0 -54.094,93.693 -54.094,93.693l54.094,93.693l108.187,-0l54.094,-93.693l-54.094,-93.693l-108.187,0Z" style="fill:#2a2b2a;"/></g><path d="M129.6,0l112.237,64.8l-0,129.6l-112.237,64.8l-112.237,-64.8l0,-129.6l112.237,-64.8Z" style="fill:#2a2b2a;"/><path d="M129.6,0l112.237,64.8l-0,129.6l-112.237,64.8l-112.237,-64.8l0,-129.6l112.237,-64.8Zm-0,13.279l-100.737,58.161l0,116.32l100.737,58.161c22.152,-12.79 100.737,-58.161 100.737,-58.161l-0,-116.32l-100.737,-58.161Z" style="fill:#839788;"/><path d="M129.591,25.919l89.79,51.84l-0,103.68l-89.79,51.84l-89.789,-51.84l-0,-103.68l89.789,-51.84Z" style="fill:#2a2b2a;"/><path d="M129.591,25.919l89.79,51.84l-0,103.68l-89.79,51.84l-89.789,-51.84l-0,-103.68l89.789,-51.84Zm0,10.97l-80.289,46.355l-0,92.71c-0,0 80.289,46.356 80.289,46.356c0,-0 80.29,-46.356 80.29,-46.356c-0,0 -0,-92.71 -0,-92.71l-80.29,-46.355Z" style="fill:#4d6a6d;"/><path d="M129.593,46.655l71.831,41.472l0,82.944l-71.831,41.472l-71.832,-41.472l-0,-82.944l71.832,-41.472Z" style="fill:#2a2b2a;"/><path d="M129.593,46.655l71.831,41.472l0,82.944l-71.831,41.472l-71.832,-41.472l-0,-82.944l71.832,-41.472Zm-0,8.66l-64.332,37.142l-0,74.284l64.332,37.142l64.331,-37.142l0,-74.284l-64.331,-37.142Z" style="fill:#293241;"/><path d="M129.6,129.6l0.003,-42.476l36.781,21.235l-36.784,21.241Z" style="fill:#293241;"/><path d="M129.6,129.599l45.988,-26.544l-0,53.088l-45.988,-26.544Z" style="fill:#4d6a6d;"/><path d="M129.6,129.599l57.475,33.195l-57.465,33.177l-0.01,-66.372Z" style="fill:#839788;"/><path d="M129.6,129.6l-0.007,82.957l-71.832,-41.472l71.839,-41.485Z" style="fill:#293241;"/><path d="M129.6,129.599l-89.798,51.84l-0,-103.68l89.798,51.84Z" style="fill:#4d6a6d;"/><path d="M129.6,129.599l-112.237,-64.799l112.237,-64.8l-0,129.599Z" style="fill:#839788;"/></svg>